<?xml version="1.0" standalone="no"?>
<!DOCTYPE svg PUBLIC "-//W3C//DTD SVG 20010904//EN"
 "http://www.w3.org/TR/2001/REC-SVG-20010904/DTD/svg10.dtd">
<svg version="1.0" xmlns="http://www.w3.org/2000/svg"
 width="562.000000pt" height="158.000000pt" viewBox="0 0 562.000000 158.000000"
 preserveAspectRatio="xMidYMid meet">

<g transform="translate(0.000000,158.000000) scale(0.100000,-0.100000)"
fill="#000000" stroke="none">
<path d="M4815 1568 c-3 -7 -6 -56 -7 -108 l-3 -95 -27 -3 -27 -3 -3 78 c-3
72 -5 78 -25 81 -22 3 -23 1 -23 -78 l0 -81 -27 3 c-26 3 -28 7 -31 56 -3 43
-6 52 -22 52 -16 0 -19 -9 -22 -52 l-3 -53 -79 -3 c-57 -2 -83 1 -95 11 -32
28 -81 47 -122 47 -33 0 -47 -6 -75 -34 -30 -30 -34 -40 -34 -86 0 -46 4 -56
35 -87 34 -34 38 -35 90 -31 40 3 62 11 80 28 l25 23 26 -57 c20 -44 26 -73
26 -124 0 -81 -19 -139 -83 -258 -128 -241 -134 -421 -17 -549 80 -88 230
-151 365 -154 27 -1 36 -8 59 -46 14 -25 30 -45 34 -45 5 0 23 20 40 45 25 36
37 45 60 45 36 0 25 -2 102 16 158 37 286 134 321 244 40 123 15 259 -82 441
-66 126 -83 180 -82 264 1 53 7 82 27 123 l26 52 30 -25 c23 -19 41 -25 80
-25 44 0 54 4 84 34 30 30 34 40 34 86 0 46 -4 56 -34 86 -28 28 -42 34 -75
34 -41 0 -90 -19 -122 -47 -12 -10 -38 -13 -95 -11 l-79 3 -3 53 c-3 48 -5 53
-25 50 -19 -3 -22 -9 -22 -48 0 -31 -5 -47 -15 -51 -32 -13 -40 2 -40 77 0 59
-3 76 -16 81 -25 9 -34 -16 -34 -94 0 -66 -1 -72 -20 -68 -35 7 -37 13 -33
101 3 57 0 90 -8 100 -14 17 -28 18 -34 2z m-215 -821 c0 -283 -3 -516 -6
-520 -8 -8 -80 28 -125 64 -22 17 -46 50 -59 81 -19 45 -22 64 -17 127 5 64
13 89 68 200 88 179 96 199 109 282 14 87 3 175 -29 238 l-21 41 40 0 40 0 0
-513z m100 -17 c0 -518 0 -530 -19 -530 -11 0 -23 5 -27 11 -7 11 -13 1015 -6
1037 2 6 15 12 28 12 l24 0 0 -530z m110 24 c0 -495 0 -507 -21 -535 -11 -16
-25 -29 -30 -29 -5 0 -9 211 -9 535 l0 535 30 0 30 0 0 -506z m100 -29 c0
-294 -4 -535 -8 -535 -4 0 -16 14 -26 31 -17 29 -19 65 -20 508 -1 262 0 488
2 504 3 21 10 27 28 27 l24 0 0 -535z m104 17 c0 -285 -4 -524 -8 -530 -4 -7
-16 -12 -27 -12 -19 0 -19 12 -19 530 l0 530 28 0 27 0 -1 -518z m107 479
c-34 -66 -46 -158 -31 -241 10 -59 43 -160 60 -185 30 -42 81 -152 99 -209 49
-160 8 -272 -127 -341 -19 -9 -39 -14 -45 -12 -9 3 -11 135 -10 513 1 280 2
510 2 512 1 1 17 2 36 2 l35 0 -19 -39z"/>
<path d="M1763 1283 l-23 -4 0 -330 0 -329 58 0 57 0 0 88 c-1 48 1 105 3 127
l4 40 96 -3 c122 -4 155 2 196 38 76 67 76 274 -1 342 -11 10 -43 22 -73 28
-51 10 -272 12 -317 3z m299 -111 c20 -19 23 -33 23 -93 0 -65 -2 -73 -28 -95
-25 -21 -37 -24 -118 -24 l-89 0 0 121 0 121 95 -4 c82 -3 97 -6 117 -26z"/>
<path d="M2424 1271 c-48 -22 -89 -68 -105 -119 -7 -20 -14 -100 -16 -176 -10
-294 57 -376 297 -363 148 8 196 44 226 173 18 78 15 292 -5 355 -17 53 -51
100 -91 123 -51 30 -246 34 -306 7z m255 -118 c30 -38 44 -125 38 -243 -7
-162 -40 -206 -150 -203 -112 2 -147 62 -146 243 2 180 29 231 127 240 69 7
106 -4 131 -37z"/>
<path d="M3608 1285 c-3 -3 -16 -8 -29 -10 -36 -7 -105 -85 -121 -136 -8 -27
-13 -97 -13 -184 1 -139 3 -168 18 -192 5 -7 6 -13 2 -13 -13 0 27 -59 59 -88
46 -40 91 -52 197 -52 206 0 265 82 263 365 0 112 -4 135 -32 197 -25 54 -66
91 -118 106 -41 12 -216 17 -226 7z m206 -122 c35 -30 47 -85 46 -210 0 -194
-24 -235 -138 -241 -62 -4 -71 -2 -100 23 -41 35 -52 79 -53 214 0 182 25 231
124 241 65 6 89 1 121 -27z"/>
<path d="M1263 1268 c-11 -19 -74 -211 -160 -493 -13 -44 -31 -97 -39 -117
l-14 -38 64 0 63 0 25 93 25 92 126 3 126 3 11 -43 c7 -24 16 -50 20 -59 5 -9
12 -33 15 -53 l7 -36 60 0 60 0 -7 33 c-4 17 -25 86 -47 152 -63 193 -105 326
-123 390 -10 33 -25 66 -33 73 -21 16 -168 16 -179 0z m113 -105 c3 -16 21
-78 40 -138 19 -61 34 -114 34 -118 0 -4 -43 -7 -95 -7 l-95 0 6 28 c3 15 9
38 14 52 5 14 21 67 36 118 28 94 48 116 60 65z"/>
<path d="M2970 1001 c0 -290 3 -319 43 -356 20 -18 35 -20 192 -20 l170 0 3
47 3 47 -123 -1 c-146 -2 -168 3 -169 40 0 15 -1 138 -2 275 l-1 247 -58 0
-58 0 0 -279z"/>
<path d="M900 401 l0 -39 -44 5 c-39 5 -46 2 -61 -21 -21 -32 -17 -132 6 -147
21 -13 73 -11 88 4 11 10 14 10 18 0 3 -7 11 -13 19 -13 11 0 14 24 14 125 0
118 -1 125 -20 125 -17 0 -20 -7 -20 -39z m-3 -106 c2 -38 -20 -75 -46 -75
-28 0 -42 85 -19 108 7 7 24 12 38 10 22 -3 25 -8 27 -43z"/>
<path d="M2900 327 c0 -123 5 -137 52 -137 33 0 39 25 8 33 -18 5 -20 14 -20
111 0 99 -1 106 -20 106 -19 0 -20 -7 -20 -113z"/>
<path d="M247 414 c-4 -4 -7 -16 -7 -26 0 -10 -7 -18 -15 -18 -8 0 -15 -7 -15
-15 0 -8 7 -15 15 -15 17 0 17 -4 15 -73 -1 -26 4 -55 10 -63 17 -19 80 -19
80 1 0 8 -6 15 -14 15 -21 0 -28 15 -31 71 -2 48 -1 49 26 49 20 0 29 5 29 16
0 9 -6 14 -13 11 -19 -7 -42 9 -42 30 0 18 -25 29 -38 17z"/>
<path d="M1830 393 c0 -14 -6 -23 -15 -23 -8 0 -15 -7 -15 -15 0 -8 7 -15 15
-15 15 0 18 -16 15 -83 -2 -48 14 -67 56 -67 38 0 48 24 14 33 -14 4 -20 14
-21 34 0 15 -2 40 -3 56 -1 24 2 27 27 27 19 0 27 4 24 13 -2 6 -14 12 -26 11
-21 -1 -25 6 -22 38 2 13 -4 17 -23 16 -20 -2 -26 -8 -26 -25z"/>
<path d="M2570 396 c0 -13 -7 -26 -15 -30 -8 -3 -15 -10 -15 -16 0 -5 7 -10
15 -10 12 0 15 -14 15 -63 0 -72 10 -87 57 -87 38 0 47 27 11 32 -20 3 -23 10
-26 61 l-3 57 31 0 c39 0 41 27 3 32 -23 2 -27 7 -25 26 3 18 -2 22 -22 22
-21 0 -26 -5 -26 -24z"/>
<path d="M3740 390 c0 -20 -5 -30 -15 -30 -8 0 -15 -4 -15 -10 0 -5 7 -10 15
-10 12 0 15 -14 15 -63 0 -72 10 -87 57 -87 38 0 47 27 11 32 -20 3 -23 10
-26 61 -3 55 -2 57 23 57 14 0 25 5 25 10 0 6 -11 10 -25 10 -21 0 -25 5 -25
30 0 23 -4 30 -20 30 -16 0 -20 -7 -20 -30z"/>
<path d="M37 363 c-16 -15 -4 -22 45 -25 41 -2 54 -7 56 -20 3 -15 -4 -18 -45
-18 -27 0 -54 -5 -61 -12 -16 -16 -16 -70 0 -86 15 -15 63 -16 89 -2 13 7 19
7 19 0 0 -5 9 -10 20 -10 18 0 20 7 20 68 0 93 -14 112 -84 112 -29 0 -56 -3
-59 -7z m103 -103 c0 -23 -40 -46 -64 -37 -13 5 -16 24 -7 55 1 1 17 2 36 2
28 0 35 -4 35 -20z"/>
<path d="M391 353 c-15 -13 -23 -33 -27 -66 -4 -41 -1 -51 21 -73 21 -21 33
-25 77 -22 66 4 80 28 16 28 -43 0 -68 13 -68 35 0 6 15 9 39 7 50 -5 81 12
81 43 0 58 -90 88 -139 48z m100 -29 c10 -13 10 -17 -2 -25 -8 -5 -22 -7 -31
-5 -10 2 -21 0 -24 -5 -9 -15 -24 0 -24 25 0 19 6 23 34 24 20 1 39 -5 47 -14z"/>
<path d="M638 356 c-16 -9 -30 -11 -33 -5 -4 5 -13 9 -21 9 -11 0 -14 -18 -14
-85 0 -78 2 -85 20 -85 18 0 20 7 20 65 0 64 0 64 33 73 17 5 35 7 40 5 4 -2
7 -35 7 -74 0 -62 2 -69 20 -69 18 0 20 7 20 78 0 102 -23 124 -92 88z"/>
<path d="M1150 353 c-17 -12 -25 -13 -28 -5 -2 7 -10 12 -18 12 -11 0 -14 -18
-14 -85 0 -78 2 -85 20 -85 18 0 20 7 20 64 0 67 6 76 51 76 16 0 19 -8 20
-52 1 -29 1 -61 0 -70 -2 -12 5 -18 18 -18 19 0 21 6 21 60 0 53 3 61 25 76
39 26 55 5 55 -72 0 -57 2 -64 20 -64 18 0 19 7 19 77 0 43 -5 83 -11 90 -14
17 -59 16 -85 -2 -18 -13 -22 -13 -33 0 -16 20 -50 19 -80 -2z"/>
<path d="M1420 350 c-15 -15 -20 -33 -20 -70 0 -71 21 -90 100 -90 47 0 60 3
60 15 0 11 -12 15 -50 15 -39 0 -52 4 -60 20 -9 17 -8 20 12 21 13 1 34 2 48
3 14 1 31 5 38 9 18 12 15 62 -6 80 -27 24 -97 22 -122 -3z m98 -37 c3 -20 -1
-23 -32 -23 -28 0 -36 4 -36 18 0 26 10 33 40 30 17 -2 26 -10 28 -25z"/>
<path d="M1662 354 c-12 -8 -22 -10 -22 -5 0 6 -7 11 -15 11 -12 0 -15 -16
-15 -85 0 -76 2 -85 19 -85 15 0 18 9 20 62 2 67 11 80 51 76 24 -3 25 -7 28
-70 3 -60 5 -68 22 -68 18 0 20 7 20 78 0 47 -5 83 -12 90 -17 17 -69 15 -96
-4z"/>
<path d="M1977 352 c-9 -10 -20 -38 -23 -63 -5 -36 -2 -49 16 -71 19 -24 28
-28 75 -28 64 0 80 16 84 85 1 37 -3 50 -23 70 -32 32 -104 35 -129 7z m93
-26 c6 -9 10 -34 8 -58 -3 -39 -6 -43 -33 -46 -21 -3 -33 3 -46 19 -9 13 -15
28 -13 33 20 60 25 66 48 66 13 0 29 -7 36 -14z"/>
<path d="M2402 354 c-12 -8 -22 -10 -22 -5 0 6 -7 11 -15 11 -12 0 -15 -16
-15 -85 0 -78 2 -85 20 -85 17 0 19 8 22 67 3 62 5 68 28 73 39 10 50 -6 50
-76 0 -57 2 -64 20 -64 18 0 20 7 20 74 0 54 -4 79 -16 90 -20 20 -63 20 -92
0z"/>
<path d="M2715 345 c-32 -31 -34 -91 -4 -129 18 -23 28 -26 80 -26 46 0 59 3
59 15 0 11 -12 15 -44 15 -27 0 -48 6 -56 15 -17 20 -12 23 38 26 52 3 77 27
68 64 -12 49 -101 61 -141 20z m102 -21 c9 -23 -18 -43 -49 -37 -27 5 -38 30
-21 46 13 14 64 7 70 -9z"/>
<path d="M3117 352 c-18 -20 -23 -57 -9 -66 10 -6 8 -73 -2 -83 -3 -3 -6 -19
-6 -34 0 -38 29 -52 97 -47 59 5 73 16 73 60 0 33 -12 41 -74 48 -63 6 -75 30
-16 30 60 0 80 14 80 55 0 19 5 35 10 35 6 0 10 5 10 10 0 6 -31 10 -73 10
-59 0 -77 -4 -90 -18z m101 -39 c3 -20 -1 -23 -32 -23 -37 0 -51 12 -42 36 4
10 16 14 38 12 25 -2 34 -8 36 -25z m7 -138 c0 -17 -7 -20 -40 -20 -34 0 -40
3 -43 23 -3 22 0 23 40 20 35 -2 43 -7 43 -23z"/>
<path d="M3325 346 c-19 -19 -23 -33 -21 -70 4 -68 26 -88 95 -84 68 4 85 28
19 28 -41 0 -68 13 -68 32 0 4 20 8 44 8 50 0 76 19 76 55 0 54 -100 76 -145
31z m100 -31 c0 -16 -8 -21 -37 -23 -32 -3 -38 0 -38 16 0 27 10 33 45 30 22
-2 30 -8 30 -23z"/>
<path d="M3573 355 c-14 -10 -24 -12 -28 -5 -3 5 -13 10 -21 10 -11 0 -14 -18
-14 -85 0 -78 2 -85 20 -85 18 0 20 7 20 64 0 61 1 65 28 73 45 16 52 8 52
-68 0 -62 2 -69 20 -69 18 0 20 7 20 78 0 47 -5 83 -12 90 -17 17 -59 15 -85
-3z"/>
<path d="M3882 349 c-43 -45 -30 -142 21 -154 37 -10 110 -1 115 13 2 8 -11
12 -47 12 -40 0 -52 4 -61 20 -12 22 -13 21 50 24 19 0 41 5 48 9 17 11 15 63
-4 81 -24 24 -99 21 -122 -5z m96 -35 c3 -18 -2 -21 -30 -20 -38 1 -52 14 -36
34 17 20 62 11 66 -14z"/>
<path d="M1000 275 c0 -78 2 -85 20 -85 18 0 20 7 20 85 0 78 -2 85 -20 85
-18 0 -20 -7 -20 -85z"/>
<path d="M2250 275 c0 -78 2 -85 20 -85 18 0 20 7 20 85 0 78 -2 85 -20 85
-18 0 -20 -7 -20 -85z"/>
<path d="M3020 275 c0 -69 3 -85 15 -85 12 0 15 16 15 85 0 69 -3 85 -15 85
-12 0 -15 -16 -15 -85z"/>
</g>
</svg>
